# AST/ASF file generated using VICON BodyLanguage
# -----------------------------------------------
:version 1.10
:name VICON
:units
  mass 1.0
  length 0.45
  angle deg
:documentation
   .ast/.asf automatically generated from VICON data using
   VICON BodyBuilder and BodyLanguage model FoxedUp or BRILLIANT.MOD
:root
   order TX TY TZ RX RY RZ
   axis XYZ
   position 0 0 0  
   orientation 0 0 0 
:bonedata
  begin
     id 1 
     name lhipjoint
     direction 0.734343 -0.627749 0.258209 
     length 2.5437 
     axis 0 0 0  XYZ
  end
  begin
     id 2 
     name lfemur
     direction 0.34202 -0.939693 0  
     length 6.7391  
     axis 0 0 20  XYZ
    dof rx ry rz
    limits (-160.0 20.0)
           (-70.0 70.0)
           (-60.0 70.0)
  end
  begin
     id 3 
     name ltibia
     direction 0.34202 -0.939693 0   
     length 7.21536   
     axis 0 0 20   XYZ
    dof rx
    limits (-10.0 170.0)
  end
  begin
     id 4 
     name lfoot
     direction 0.0489572 -0.134509 0.989702   
     length 1.61313   
     axis -90 7.62852e-016 20   XYZ
    dof rx rz
    limits (-45.0 90.0)
           (-70.0 20.0)
  end
  begin
     id 5 
     name ltoes
     direction 1.53451e-011 -4.21692e-011 1   
     length 0.823104   
     axis -90 7.62852e-016 20   XYZ
    dof rx
    limits (-90.0 20.0)
  end
  begin
     id 6 
     name rhipjoint
     direction -0.746398 -0.615468 0.253157   
     length 2.59446  
     axis 0 0 0  XYZ 
  end
  begin
     id 7 
     name rfemur
     direction -0.34202 -0.939693 0   
     length 6.7075   
     axis 0 0 -20   XYZ
    dof rx ry rz
    limits (-160.0 20.0)
           (-70.0 70.0)
           (-70.0 60.0)
  end
  begin
     id 8 
     name rtibia
     direction -0.34202 -0.939693 0   
     length 7.27262   
     axis 0 0 -20   XYZ
    dof rx
    limits (-10.0 170.0)
 end
 begin
     id 9 
     name rfoot
     direction -0.0455203 -0.125066 0.991104   
     length 1.91095  
     axis -90 -7.62852e-016 -20   XYZ
    dof rx rz
    limits (-45.0 90.0)
           (-20.0 70.0)
  end
  begin
     id 10 
     name rtoes
     direction -1.53601e-011 -4.21913e-011 1   
     length 0.969037   
     axis -90 -7.62852e-016 -20   XYZ
    dof rx
    limits (-90.0 20.0)
  end
  begin
     id 11 
     name lowerback
     direction 0.0181546 0.999122 -0.0377542   
     length 1.99916   
     axis 0 0 0   XYZ
    dof rx ry rz
    limits (-20.0 45.0)
           (-30.0 30.0)
           (-30.0 30.0)
  end
  begin
     id 12 
     name upperback
     direction 0.0203486 0.99589 0.0882534   
     length 1.951   
     axis 0 0 0   XYZ
    dof rx ry rz
    limits (-20.0 45.0)
           (-30.0 30.0)
           (-30.0 30.0)
  end
  begin
     id 13 
     name thorax
     direction 0.0131685 0.994241 0.106355   
     length 1.97461   
     axis 0 0 0   XYZ
    dof rx ry rz
    limits (-20.0 45.0)
           (-30.0 30.0)
           (-30.0 30.0)
  end
  begin
     id 14 
     name lowerneck
     direction -0.0281395 0.999325 0.023617   
     length 1.7959   
     axis 0 0 0   XYZ
    dof rx ry rz
    limits (-20.0 45.0)
           (-30.0 30.0)
           (-30.0 30.0)
  end
  begin
     id 15 
     name upperneck
     direction 0.0288721 0.991984 -0.123019   
     length 1.79917   
     axis 0 0 0   XYZ
    dof rx ry rz
    limits (-20.0 45.0)
           (-30.0 30.0)
           (-30.0 30.0)
  end
  begin
     id 16
     name head
     direction 0.0133797 0.998944 -0.0439492  
     length 1.80902  
     axis 0 0 0   XYZ
    dof rx ry rz
    limits (-20.0 45.0)
           (-30.0 30.0)
           (-30.0 30.0)
  end
  begin
     id 17 
     name lclavicle
     direction 0.919195 0.377107 0.113449  
     length 3.17815  
     axis 0 0 0   XYZ
    dof ry rz
    limits (-20.0 10.0)
           (0.0 20.0)
  end
  begin
     id 18 
     name lhumerus
     direction 1 -4.48959e-011 2.13129e-027   
     length 4.84137   
     axis 180 -30 -90   XYZ
    dof rx ry rz
    limits (-60.0 90.0)
           (-90.0 90.0)
           (-90.0 90.0)
  end
  begin
     id 19
     name lradius
     direction 1 -4.48957e-011 -6.30627e-028   
     length 3.2452   
     axis 180 -30 -90   XYZ
    dof rx
    limits (-10.0 170.0)
  end
  begin
     id 20
     name lwrist
     direction 1 -4.4901e-011 9.13299e-027   
     length 1.6226   
     axis -6.84618e-015 90 90   XYZ
    dof ry
    limits (-180.0 0.0)
 end
  begin
     id 21 
     name lhand
     direction 1 -4.48816e-011 1.82293e-026   
     length 0.521221   
     axis -1.16502e-014 90 90   XYZ
    dof rx rz
    limits (-90.0 90.0)
           (-45.0 45.0)
  end
  begin
     id 22 
     name lfingers
     direction 1 -4.49108e-011 3.65687e-026   
     length 0.420221   
     axis -2.33008e-014 90 90   XYZ
    dof rx
    limits (0.0 90.0)
  end
  begin
     id 23
     name lthumb
     direction 0.707107 -6.34943e-011 0.707107   
     length 0.603356   
     axis -90 45 5.69224e-014   XYZ
    dof rx rz
    limits (-45.0 45.0)
           (-45.0 45.0)
  end
  begin
     id 24 
     name rclavicle
     direction -0.90847 0.38596 0.160368   
     length 3.12973  
     axis 0 0 0   XYZ 
    dof ry rz
    limits (-10.0 20.0)
           (-20.0 0.0)
  end
  begin
     id 25 
     name rhumerus
     direction -1 -4.48974e-011 4.47268e-028  
     length 4.72284   
     axis 180 30 90   XYZ
    dof rx ry rz
    limits (-90.0 60.0)
           (-90.0 90.0)
           (-90.0 90.0)
  end
  begin
     id 26 
     name rradius
     direction -1 -4.48969e-011 3.43203e-027   
     length 3.23459   
     axis 180 30 90   XYZ
    dof rx
    limits (-10.0 170.0)
  end
  begin
     id 27 
     name rwrist
     direction -1 -4.48969e-011 9.12911e-027   
     length 1.6173   
     axis -6.84618e-015 -90 -90   XYZ
    dof ry
    limits (-180.0 0.0)
  end
  begin
     id 28
     name rhand
     direction -1 -4.49194e-011 1.83006e-026   
     length 0.307416   
     axis -1.16502e-014 -90 -90   XYZ
    dof rx rz
    limits (-90.0 90.0)
           (-45.0 45.0)
  end
  begin
     id 29
     name rfingers
     direction -1 -4.48423e-011 3.63103e-026   
     length 0.247847   
     axis -2.33008e-014 -90 -90   XYZ
    dof rx
    limits (0.0 90.0)
  end
  begin
     id 30
     name rthumb
     direction -0.707107 -6.34802e-011 0.707107   
     length 0.35586   
     axis -90 -45 -5.69224e-014   XYZ
    dof rx rz
    limits (-45.0 45.0)
           (-45.0 45.0)
  end
:hierarchy
  begin
    root lhipjoint rhipjoint lowerback
    lhipjoint lfemur
    lfemur ltibia
    ltibia lfoot
    lfoot ltoes
    rhipjoint rfemur
    rfemur rtibia
    rtibia rfoot
    rfoot rtoes
    lowerback upperback
    upperback thorax
    thorax lowerneck lclavicle rclavicle
    lowerneck upperneck
    upperneck head
    lclavicle lhumerus
    lhumerus lradius
    lradius lwrist
    lwrist lhand lthumb
    lhand lfingers
    rclavicle rhumerus
    rhumerus rradius
    rradius rwrist
    rwrist rhand rthumb
    rhand rfingers
  end

#!OML:ASF \\Waltz\H\Terrain\Patient Classification 1\Animal1\Tuesday\Animal1.ASF
:FULLY-SPECIFIED
:DEGREES
507
root -2.35199 16.3141 0.834452 12.9998 -18.3798 0.0842578
lowerback -3.31657 -1.8636 -1.85021
upperback -12.0359 -2.53949 2.01336
thorax -10.8034 -1.00172 3.35535
lowerneck -2.19627 -0.648082 -7.87969
upperneck 22.6727 -3.68249 15.8348
head 7.62838 -1.20233 6.42926
rclavicle -5.9536e-014 1.31198e-014
rhumerus -7.5496 23.9031 -87.8474
rradius 130.657
rwrist -72.4672
rhand -18.8253 18.7291
rfingers 7.12502
rthumb 7.47379 -11.1188
lclavicle -5.9536e-014 1.31198e-014
lhumerus -4.93285 -19.4528 87.5176
lradius 134.206
lwrist 22.2437
lhand 20.5565 51.5552
lfingers 7.12502
lthumb 45.0532 75.0338
rfemur -29.5274 18.3369 23.1579
rtibia 35.3119
rfoot -13.1202 -16.4731
rtoes 3.2022
lfemur -37.5224 -20.9822 -7.5718
ltibia 63.3088
lfoot 27.8436 -10.7774
ltoes 12.9426
508
root -2.35005 16.3077 0.834099 12.8047 -18.3082 0.149449
lowerback -3.36917 -1.89385 -1.80157
upperback -11.9002 -2.57596 2.00088
thorax -10.6137 -1.02986 3.30797
lowerneck -2.2235 -0.631767 -7.80305
upperneck 22.509 -3.61869 15.7255
head 7.56905 -1.17527 6.37339
rclavicle -3.93594e-014 -2.74323e-014
rhumerus -7.34822 22.7736 -87.9389
rradius 129.764
rwrist -73.3539
rhand -22.6219 19.1813
rfingers 7.12502
rthumb 3.80821 -10.7644
lclavicle -3.93594e-014 -2.74323e-014
lhumerus -4.83666 -17.9259 87.5881
lradius 133.362
lwrist 20.7927
lhand 22.3006 50.0078
lfingers 7.12502
lthumb 46.672 72.8172
rfemur -29.3484 18.2589 23.1677
rtibia 35.3713
rfoot -12.8016 -16.5336
rtoes 2.68434
lfemur -37.3132 -21.2177 -7.64018
ltibia 63.1621
lfoot 28.3137 -8.90473
ltoes 18.8341
509
root -2.35047 16.3086 0.832542 12.6006 -18.3238 0.209599
lowerback -3.41369 -1.86932 -1.75676
upperback -11.705 -2.54298 1.91902
thorax -10.368 -1.02852 3.18244
lowerneck -2.08311 -0.651141 -7.50995
upperneck 22.0011 -3.56981 15.5235
head 7.36533 -1.15821 6.22954
rclavicle -6.0033e-014 -1.98785e-014
rhumerus -6.98375 21.4394 -87.9831
rradius 129.124
rwrist -74.183
rhand -24.9217 19.8341
rfingers 7.12502
rthumb 1.58724 -10.1397
lclavicle -6.0033e-014 -1.98785e-014
lhumerus -4.64755 -16.8306 87.4342
lradius 133.386
lwrist 20.2431
lhand 24.8405 48.9686
lfingers 7.12502
lthumb 49.0147 70.6937
rfemur -29.1368 18.2552 23.1691
rtibia 35.3756
rfoot -12.4769 -16.6345
rtoes 0.998965
lfemur -37.06 -21.3289 -7.76043
ltibia 63.0948
lfoot 28.0478 -9.33453
ltoes 17.5193
510
root -2.35398 16.316 0.830724 12.4108 -18.3778 0.249869
lowerback -3.42949 -1.81884 -1.70655
upperback -11.5026 -2.47681 1.81485
thorax -10.1355 -1.0117 3.03006
lowerneck -2.17499 -0.64015 -7.33451
upperneck 21.7293 -3.53801 15.5659
head 7.28821 -1.1265 6.20377
rclavicle -6.72886e-014 -5.1684e-015
rhumerus -6.62247 20.3458 -87.9945
rradius 128.84
rwrist -73.9083
rhand -24.8947 20.6203
rfingers 7.12502
rthumb 1.61325 -9.3533
lclavicle -6.72886e-014 -5.1684e-015
lhumerus -4.37231 -16.3769 87.1546
lradius 133.818
lwrist 20.4459
lhand 27.0229 48.2196
lfingers 7.12502
lthumb 51.0117 68.8945
rfemur -28.892 18.3038 23.1901
rtibia 35.3067
rfoot -12.5674 -16.6482
rtoes 0.874746
lfemur -36.7854 -21.2776 -7.916
ltibia 63.1017
lfoot 27.5337 -11.0161
ltoes 11.5354
511
root -2.35852 16.3233 0.828281 12.3502 -18.3576 0.243537
lowerback -3.41749 -1.87059 -1.73493
upperback -11.3766 -2.54014 1.88055
thorax -9.99038 -1.04004 3.1144
lowerneck -2.30295 -0.53226 -7.52022
upperneck 21.4814 -3.37266 15.7941
head 7.21264 -1.04363 6.31876
rclavicle -1.0635e-014 -3.1408e-014
rhumerus -6.35892 20.1002 -87.8643
rradius 129.199
rwrist -73.59
rhand -24.1347 20.5887
rfingers 7.12502
rthumb 2.34726 -9.37809
lclavicle -1.0635e-014 -3.1408e-014
lhumerus -4.22796 -16.6519 86.7985
lradius 134.414
lwrist 20.81
lhand 29.1559 46.9876
lfingers 7.12502
lthumb 52.9465 66.5138
rfemur -28.7566 18.3732 23.2293
rtibia 35.185
rfoot -12.5755 -16.6215
rtoes 2.24298
lfemur -36.6856 -21.2178 -7.95009
ltibia 63.1222
lfoot 27.2347 -12.1226
ltoes 7.51999
512
root -2.36306 16.3282 0.826134 12.4054 -18.305 0.163333
lowerback -3.3075 -2.0033 -1.83977
upperback -11.4058 -2.70533 2.13651
thorax -10.0635 -1.09619 3.4613
lowerneck -2.13645 -0.445536 -7.73403
upperneck 21.0965 -3.16296 15.6865
head 7.03034 -0.981865 6.31666
rclavicle 1.09332e-015 9.14409e-015
rhumerus -6.4317 20.7801 -87.5775
rradius 130.113
rwrist -73.7976
rhand -23.4853 19.9909
rfingers 7.12502
rthumb 2.97442 -9.96811
lclavicle 1.09332e-015 9.14409e-015
lhumerus -4.46032 -17.4838 86.5782
lradius 135.374
lwrist 21.2767
lhand 29.3193 46.6794
lfingers 7.12502
lthumb 53.0939 66.1121
rfemur -28.7305 18.4975 23.3008
rtibia 35.0649
rfoot -12.1797 -16.7243
rtoes 2.65225
lfemur -36.7211 -21.1412 -7.84225
ltibia 63.1337
lfoot 26.8358 -12.9473
ltoes 5.12758
513
root -2.36721 16.3301 0.825417 12.3762 -18.3042 0.168557
lowerback -3.1689 -1.87718 -1.85815
upperback -11.2616 -2.54269 2.01322
thorax -9.99663 -1.022 3.33164
lowerneck -2.65396 -0.741963 -7.3976
upperneck 20.9486 -3.53599 15.5157
head 7.12405 -1.12858 6.16758
rclavicle -3.84648e-014 -3.97569e-016
rhumerus -6.28097 21.1929 -87.2142
rradius 131.212
rwrist -74.0771
rhand -21.5114 19.8095
rfingers 7.12502
rthumb 4.8806 -10.1143
lclavicle -3.84648e-014 -3.97569e-016
lhumerus -4.13911 -19.4342 86.2241
lradius 136.259
lwrist 22.2138
lhand 28.0295 47.8637
lfingers 7.12502
lthumb 51.927 68.0126
rfemur -28.6418 18.5694 23.3085
rtibia 34.9744
rfoot -11.8472 -16.855
rtoes 1.4206
lfemur -36.6435 -21.0076 -7.87743
ltibia 63.1134
lfoot 26.4929 -13.5256
ltoes 3.77012
514
root -2.37042 16.3294 0.825558 12.3267 -18.3126 0.258187
lowerback -3.08648 -1.88531 -1.99442
upperback -11.3816 -2.5597 2.03133
thorax -10.1769 -1.01219 3.43713
lowerneck -1.91997 -0.711687 -7.65121
upperneck 20.5868 -3.49111 15.6887
head 6.87043 -1.15264 6.26139
rclavicle 1.56046e-014 2.66371e-014
rhumerus -6.56552 22.4284 -87.0938
rradius 132.284
rwrist -74.7142
rhand -18.3963 19.463
rfingers 7.12502
rthumb 7.88785 -10.3698
lclavicle 1.56046e-014 2.66371e-014
lhumerus -4.72291 -21.2052 86.2642
lradius 136.922
lwrist 23.0306
lhand 27.4998 49.025
lfingers 7.12502
lthumb 51.4457 69.4542
rfemur -28.5907 18.5419 23.2465
rtibia 34.9102
rfoot -12.0403 -16.8154
rtoes 1.37463
lfemur -36.55 -20.8671 -7.99482
ltibia 63.0488
lfoot 26.8107 -13.1599
ltoes 5.71815
515
root -2.37413 16.3336 0.826867 12.3565 -18.2583 0.336504
lowerback -3.01968 -1.85623 -2.09584
upperback -11.49 -2.52543 2.04056
thorax -10.3404 -0.980623 3.50984
lowerneck -1.49093 -0.688409 -7.89526
upperneck 20.4542 -3.47259 15.8561
head 6.75054 -1.17106 6.35947
rclavicle 3.04141e-014 1.23246e-014
rhumerus -6.6822 23.5001 -86.8668
rradius 133.094
rwrist -75.7678
rhand -15.7236 18.9311
rfingers 7.12502
rthumb 10.4668 -10.7884
lclavicle 3.04141e-014 1.23246e-014
lhumerus -5.21537 -22.9279 86.4405
lradius 137.202
lwrist 23.7094
lhand 26.8134 49.3281
lfingers 7.12502
lthumb 50.8207 70.1091
rfemur -28.6307 18.4615 23.1739
rtibia 34.8758
rfoot -12.505 -16.7017
rtoes 2.42334
lfemur -36.5415 -20.7731 -8.05135
ltibia 62.9284
lfoot 27.0277 -12.8499
ltoes 6.66392
516
root -2.37744 16.3424 0.829586 12.4597 -18.1802 0.464691
lowerback -2.96722 -1.80099 -2.19399
upperback -11.6009 -2.46118 1.97849
thorax -10.504 -0.938386 3.50176
lowerneck -1.89914 -0.782714 -7.71519
upperneck 21.0905 -3.63719 15.6108
head 7.04811 -1.22375 6.25624
rclavicle -2.92213e-014 1.63003e-014
rhumerus -6.74153 24.3198 -86.7039
rradius 133.49
rwrist -75.7394
rhand -14.1644 18.6514
rfingers 7.12502
rthumb 11.9706 -10.9863
lclavicle -2.92213e-014 1.63003e-014
lhumerus -5.51415 -24.1809 86.5905
lradius 137.128
lwrist 24.3045
lhand 25.5664 49.2407
lfingers 7.12502
lthumb 49.6807 70.6295
rfemur -28.7427 18.4006 23.0034
rtibia 34.834
rfoot -12.6656 -16.7722
rtoes 2.15866
lfemur -36.6372 -20.7388 -8.12444
ltibia 62.7897
lfoot 26.9549 -12.9904
ltoes 5.59889
517
root -2.37913 16.3441 0.83319 12.659 -18.1203 0.538525
lowerback -3.02361 -1.8471 -2.29075
upperback -11.9494 -2.52878 2.04303
thorax -10.8642 -0.94845 3.64218
lowerneck -1.61434 -0.688613 -7.67007
upperneck 21.7835 -3.56106 15.3417
head 7.20693 -1.20284 6.18556
rclavicle -1.6201e-014 -1.90833e-014
rhumerus -7.23266 25.2749 -86.8229
rradius 133.598
rwrist -74.6829
rhand -13.4489 18.5871
rfingers 7.12502
rthumb 12.6605 -11.0092
lclavicle -1.6201e-014 -1.90833e-014
lhumerus -6.35845 -24.4614 87.0291
lradius 136.729
lwrist 24.5577
lhand 24.3046 49.6021
lfingers 7.12502
lthumb 48.522 71.5676
rfemur -28.9493 18.4644 22.8393
rtibia 34.7754
rfoot -12.4912 -16.9391
rtoes 2.01808
lfemur -36.8787 -20.7004 -8.08745
ltibia 62.6845
lfoot 27.3439 -12.2995
ltoes 8.30891
518
root -2.37915 16.3414 0.837841 12.9255 -17.9936 0.388343
lowerback -3.21968 -1.81052 -2.06655
upperback -12.1196 -2.4707 2.05742
thorax -10.9558 -0.938365 3.52795
lowerneck -1.62322 -0.673364 -7.69472
upperneck 22.243 -3.61091 15.4058
head 7.36569 -1.21511 6.22823
rclavicle -4.46272e-014 -1.55052e-014
rhumerus -7.44652 25.4277 -86.8605
rradius 133.409
rwrist -73.7352
rhand -12.7754 18.8814
rfingers 7.12502
rthumb 13.3097 -10.6736
lclavicle -4.46272e-014 -1.55052e-014
lhumerus -6.57094 -24.3694 87.2928
lradius 135.918
lwrist 24.1292
lhand 23.5524 50.3717
lfingers 7.12502
lthumb 47.8289 72.664
rfemur -29.1257 18.5234 22.9178
rtibia 34.6855
rfoot -12.0414 -17.1068
rtoes 1.59449
lfemur -37.1958 -20.6209 -7.80247
ltibia 62.6787
lfoot 27.5876 -11.8085
ltoes 10.6452
519
root -2.37793 16.3397 0.842133 13.1414 -17.8222 0.187188
lowerback -3.40321 -1.82567 -1.77911
upperback -12.2685 -2.47645 2.12851
thorax -11.0255 -0.96361 3.44305
lowerneck -1.48342 -0.605344 -7.81983
upperneck 22.5412 -3.57995 15.547
head 7.43548 -1.20041 6.3153
rclavicle -2.08724e-015 5.56597e-015
rhumerus -7.85244 25.1341 -87.0628
rradius 132.816
rwrist -73.0741
rhand -12.83 19.3671
rfingers 7.12502
rthumb 13.2571 -10.1913
lclavicle -2.08724e-015 5.56597e-015
lhumerus -6.83024 -23.5797 87.5727
lradius 134.967
lwrist 23.2058
lhand 23.4065 50.427
lfingers 7.12502
lthumb 47.6943 72.7812
rfemur -29.2171 18.4931 23.0893
rtibia 34.5812
rfoot -11.7177 -17.2547
rtoes 0.768195
lfemur -37.4515 -20.5788 -7.50107
ltibia 62.7576
lfoot 27.5208 -11.7142
ltoes 10.8892
520
root -2.37659 16.3389 0.844533 13.3203 -17.7241 -0.037628
lowerback -3.67599 -1.63109 -1.31381
upperback -11.8804 -2.20748 1.8931
thorax -10.4509 -0.903195 2.88687
lowerneck -2.92694 -0.917898 -7.32798
upperneck 22.7459 -4.03906 15.5931
head 7.83039 -1.30896 6.22269
rclavicle 1.81888e-014 -1.19271e-014
rhumerus -6.95312 23.6637 -86.8348
rradius 131.792
rwrist -73.0593
rhand -16.0074 19.5219
rfingers 7.12502
rthumb 10.193 -10.2112
lclavicle 1.81888e-014 -1.19271e-014
lhumerus -5.70479 -22.9075 87.2919
lradius 133.927
lwrist 22.5882
lhand 23.7055 49.5824
lfingers 7.12502
lthumb 47.97 71.8092
rfemur -29.2961 18.4662 23.2879
rtibia 34.5019
rfoot -11.7243 -17.2291
rtoes 1.08572
lfemur -37.6498 -20.5533 -7.20679
ltibia 62.8633
lfoot 27.4446 -11.7281
ltoes 10.5853
